<svg width="18" height="14" viewBox="0 0 18 14" fill="none" xmlns="http://www.w3.org/2000/svg">
    <path fill-rule="evenodd" clip-rule="evenodd"
        d="M0.102645 6.53917C1.34264 2.81333 4.85681 0.125 9.00098 0.125C13.1426 0.125 16.6551 2.81083 17.8968 6.53333C17.9968 6.835 17.9968 7.16 17.8968 7.46083C16.6576 11.1867 13.1426 13.875 8.99931 13.875C4.85764 13.875 1.34431 11.1892 0.103478 7.46667C0.00326779 7.16562 0.00326779 6.84021 0.103478 6.53917H0.102645ZM13.3751 7C13.3751 8.16032 12.9142 9.27312 12.0937 10.0936C11.2733 10.9141 10.1605 11.375 9.00014 11.375C7.83982 11.375 6.72702 10.9141 5.90655 10.0936C5.08608 9.27312 4.62514 8.16032 4.62514 7C4.62514 5.83968 5.08608 4.72688 5.90655 3.90641C6.72702 3.08594 7.83982 2.625 9.00014 2.625C10.1605 2.625 11.2733 3.08594 12.0937 3.90641C12.9142 4.72688 13.3751 5.83968 13.3751 7Z"
        fill="#AFAFAF" />
</svg>
    