<svg width="12" height="12" viewBox="0 0 12 12" fill="none" xmlns="http://www.w3.org/2000/svg">
    <path fill-rule="evenodd" clip-rule="evenodd"
        d="M5.99983 0.666687C6.36802 0.666687 6.66649 0.965164 6.66649 1.33335V5.33334H10.6665C11.0347 5.33334 11.3332 5.63182 11.3332 6.00001C11.3332 6.3682 11.0347 6.66668 10.6665 6.66668H6.66649V10.6667C6.66649 11.0349 6.36802 11.3334 5.99983 11.3334C5.63164 11.3334 5.33316 11.0349 5.33316 10.6667V6.66668H1.33317C0.964981 6.66668 0.666504 6.3682 0.666504 6.00001C0.666504 5.63182 0.964981 5.33334 1.33317 5.33334H5.33316V1.33335C5.33316 0.965164 5.63164 0.666687 5.99983 0.666687Z"
        fill="white" />
</svg>