<svg width="12" height="12" viewBox="0 0 12 12" fill="none" xmlns="http://www.w3.org/2000/svg">
    <path fill-rule="evenodd" clip-rule="evenodd"
        d="M5.52842 0.86195C5.78877 0.6016 6.21088 0.601599 6.47123 0.861948L11.1379 5.5286C11.2629 5.65363 11.3332 5.8232 11.3332 6.00001C11.3332 6.17682 11.2629 6.34639 11.1379 6.47141L6.47123 11.1381C6.21088 11.3984 5.78877 11.3984 5.52842 11.1381C5.26807 10.8777 5.26807 10.4556 5.52842 10.1953L9.05703 6.66668H1.33317C0.964981 6.66668 0.666504 6.3682 0.666504 6.00001C0.666504 5.63182 0.964981 5.33334 1.33317 5.33334H9.05702L5.52842 1.80476C5.26807 1.54441 5.26807 1.1223 5.52842 0.86195Z"
        fill="white" />
</svg>